# xmcd
# Track frame offsets:
# 150
# 14744
# 32730
# 45030
# 64961
# 84230
# 99939
# 115850
# 130249
# 146709
# 161107
# 177511
#
# Disc length: 2618 seconds
# Revision: 0
# Processed by: cddbd v1.5.1PL0 Copyright (c) Steve Scherf et al.
# Submitted via: VisiTrax 2.9.10.220 - For more info visit www.synapsa.com
#
DISCID=9d0a380c
DTITLE=Isla Grant - When The Day Is Done
DYEAR=2005
DGENRE=Country
TTITLE0=When The Day Is Done
TTITLE1=Meet Her Someday
TTITLE2=Love's A Blessing
TTITLE3=Lough Ree
TTITLE4=A Daisy For Mama
TTITLE5=Australia
TTITLE6=Let Me See
TTITLE7=Falling In Love With You
TTITLE8=My Scotland
TTITLE9=An Old Country Church
TTITLE10=Parcel Of Dreams
TTITLE11=Out Of The Blue
EXTD=
EXTT0=
EXTT1=
EXTT2=
EXTT3=
EXTT4=
EXTT5=
EXTT6=
EXTT7=
EXTT8=
EXTT9=
EXTT10=
EXTT11=
PLAYORDER=
